<svg width="34" height="41" viewBox="0 0 34 41" fill="none" xmlns="http://www.w3.org/2000/svg">
<path fill-rule="evenodd" clip-rule="evenodd" d="M22.14 21.115V29.93V30.135H22.1381C22.0288 36.1542 17.1153 41 11.07 41C5.02469 41 0.111177 36.1542 0.0018602 30.135H0V29.93V21.115V20.91H0.0018601C0.111174 14.8908 5.02469 10.045 11.07 10.045C17.1153 10.045 22.0288 14.8908 22.1381 20.91H22.14V21.115ZM4.92 21.525C4.92 18.1284 7.67345 15.375 11.07 15.375C14.4665 15.375 17.22 18.1284 17.22 21.525V29.93C17.22 33.3265 14.4665 36.08 11.07 36.08C7.67345 36.08 4.92 33.3265 4.92 29.93V21.525Z" fill="white"/>
<path fill-rule="evenodd" clip-rule="evenodd" d="M33.1153 6.56C32.6346 9.12718 30.3817 11.07 27.675 11.07C24.6181 11.07 22.14 8.5919 22.14 5.535C22.14 2.4781 24.6181 0 27.675 0C30.3817 0 32.6346 1.94282 33.1153 4.51H30.575C30.1529 3.31568 29.0139 2.46 27.675 2.46C25.9767 2.46 24.6 3.83673 24.6 5.535C24.6 7.23328 25.9767 8.61 27.675 8.61C29.0139 8.61 30.1529 7.75432 30.575 6.56H33.1153Z" fill="white"/>
</svg>
