<svg width="34" height="43" viewBox="0 0 34 43" fill="none" xmlns="http://www.w3.org/2000/svg">
<path fill-rule="evenodd" clip-rule="evenodd" d="M22.14 23.115V31.93V32.135H22.1381C22.0288 38.1542 17.1153 43 11.07 43C5.02469 43 0.111177 38.1542 0.0018602 32.135H0V31.93V23.115V22.91H0.0018601C0.111174 16.8908 5.02469 12.045 11.07 12.045C17.1153 12.045 22.0288 16.8908 22.1381 22.91H22.14V23.115ZM4.92 23.525C4.92 20.1284 7.67345 17.375 11.07 17.375C14.4665 17.375 17.22 20.1284 17.22 23.525V31.93C17.22 35.3265 14.4665 38.08 11.07 38.08C7.67345 38.08 4.92 35.3265 4.92 31.93V23.525Z" fill="#43A0F7"/>
<path fill-rule="evenodd" clip-rule="evenodd" d="M33 8.82941C32.393 12.0713 29.5479 14.5248 26.1298 14.5248C22.2694 14.5248 19.14 11.3954 19.14 7.53501C19.14 3.67464 22.2694 0.545197 26.1298 0.545197C29.5479 0.545197 32.393 2.99866 33 6.24059H29.7921C29.259 4.73236 27.8206 3.65178 26.1298 3.65178C23.9852 3.65178 22.2466 5.39036 22.2466 7.53501C22.2466 9.67966 23.9852 11.4182 26.1298 11.4182C27.8206 11.4182 29.259 10.3376 29.7921 8.82941H33Z" fill="url(#paint0_linear_208_148)"/>
<defs>
<linearGradient id="paint0_linear_208_148" x1="31.1054" y1="11.9107" x2="22.2655" y2="4.33371" gradientUnits="userSpaceOnUse">
<stop stop-color="#43CCF7"/>
<stop offset="1" stop-color="#43A0F7"/>
</linearGradient>
</defs>
</svg>
