<svg width="2048" height="2048" viewBox="0 0 2048 2048" fill="none"
    xmlns="http://www.w3.org/2000/svg">
    <path
        d="M814.646 593.189L374.018 1287.38C363.676 1303.68 382.108 1322.92 398.829 1313.28L1271.77 810.301C1284.87 802.754 1283.85 783.527 1270.02 777.412L837.707 586.197C829.349 582.5 819.544 585.473 814.646 593.189Z"
        fill="url(#paint0_linear_495_2075)" />
    <path
        d="M1226.62 1452.22L894.192 1173.81C884.357 1165.57 885.709 1150.06 896.82 1143.65L1653.1 707.338C1669.56 697.841 1687.91 716.407 1678.21 732.753L1254.36 1447.48C1248.56 1457.27 1235.35 1459.53 1226.62 1452.22Z"
        fill="url(#paint1_linear_495_2075)" />
    <defs>
        <linearGradient id="paint0_linear_495_2075" x1="498.38" y1="965.516" x2="1195.76"
            y2="965.516" gradientUnits="userSpaceOnUse">
            <stop stop-color="#06B6D4" />
            <stop offset="1" stop-color="#3B82F6" />
            <stop offset="1" stop-color="#3B82F6" />
        </linearGradient>
        <linearGradient id="paint1_linear_495_2075" x1="1497.2" y1="1069.13" x2="970.896"
            y2="1207.63" gradientUnits="userSpaceOnUse">
            <stop stop-color="#8DEBFF" />
            <stop offset="1" stop-color="#50D5FF" />
        </linearGradient>
    </defs>
</svg>